<svg xmlns="http://www.w3.org/2000/svg" xmlns:xlink="http://www.w3.org/1999/xlink" width="500" zoomAndPan="magnify" viewBox="0 0 375 374.999991" height="500" preserveAspectRatio="xMidYMid meet" version="1.2"><defs><clipPath id="7377cb70a2"><path d="M 38 58.039062 L 370.5 58.039062 L 370.5 291.589844 L 38 291.589844 Z M 38 58.039062 "/></clipPath><clipPath id="21085d1091"><path d="M 23.335938 101 L 298 101 L 298 316.765625 L 23.335938 316.765625 Z M 23.335938 101 "/></clipPath><clipPath id="2b8b31f0b4"><path d="M 38 58.039062 L 370.5 58.039062 L 370.5 291.589844 L 38 291.589844 Z M 38 58.039062 "/></clipPath><clipPath id="c5a849a6ca"><path d="M 23.335938 101 L 298 101 L 298 316.765625 L 23.335938 316.765625 Z M 23.335938 101 "/></clipPath></defs><g id="3c0deb0d4c"><g clip-rule="nonzero" clip-path="url(#7377cb70a2)"><path style=" stroke:none;fill-rule:evenodd;fill:#9f2e9d;fill-opacity:1;" d="M 370.5 71.402344 C 315.003906 116.160156 286.621094 184.125 252.144531 222.59375 C 33.402344 466.667969 -138.609375 -27.886719 370.5 71.402344 "/></g><g clip-rule="nonzero" clip-path="url(#21085d1091)"><path style=" stroke:none;fill-rule:evenodd;fill:#90318e;fill-opacity:1;" d="M 23.335938 298.605469 C 67.460938 237.367188 103.128906 172.089844 184.863281 132.863281 C 217.980469 116.96875 224.648438 111.007812 261.710938 102.292969 L 261.308594 102.394531 C 276.71875 100.320312 283.148438 101.667969 297.921875 102.820312 C 285.992188 104.539062 294.511719 103.730469 280.023438 104.105469 C 245.121094 105.007812 217.988281 123.3125 187.890625 138.820312 C 103.222656 182.4375 74.929688 249.910156 25.644531 316.765625 L 23.335938 298.605469 "/></g><path style=" stroke:none;fill-rule:evenodd;fill:#90318e;fill-opacity:1;" d="M 159.988281 147.1875 C 165.820312 146.40625 171.808594 145.828125 177.984375 145.476562 C 208.96875 143.734375 216.09375 141.230469 247.851562 146.363281 L 247.503906 146.3125 C 260.207031 149.660156 264.796875 152.785156 275.960938 158.445312 C 266.09375 155.945312 273.007812 158.054688 261.566406 153.679688 C 234.019531 143.136719 206.929688 148.695312 178.429688 151.109375 C 172.167969 151.640625 166.128906 152.394531 160.285156 153.351562 C 160.976562 151.335938 160.863281 149.128906 159.988281 147.1875 "/><path style=" stroke:none;fill-rule:evenodd;fill:#90318e;fill-opacity:1;" d="M 103.59375 191.679688 C 103.933594 191.660156 104.261719 191.632812 104.597656 191.617188 C 141.273438 189.550781 149.714844 186.585938 187.296875 192.664062 L 186.886719 192.601562 C 201.925781 196.566406 207.355469 200.261719 220.574219 206.960938 C 208.890625 203.996094 217.074219 206.503906 203.53125 201.320312 C 170.921875 188.84375 138.863281 195.421875 105.125 198.277344 L 104.402344 198.34375 C 104.917969 196.105469 104.632812 193.734375 103.59375 191.679688 "/><path style=" stroke:none;fill-rule:evenodd;fill:#90318e;fill-opacity:1;" d="M 195.515625 134.003906 C 197.75 130.769531 199.832031 127.457031 201.738281 124.046875 C 211.316406 106.925781 215.507812 102.925781 218.78125 85.59375 L 218.742188 85.785156 C 218.824219 78.886719 217.046875 76.453125 214.558594 70.46875 C 214.394531 75.828125 214.164062 72.085938 215.378906 78.257812 C 218.289062 93.117188 206.105469 108.199219 196.53125 123.96875 C 194.429688 127.429688 192.167969 130.78125 189.769531 134.027344 C 191.847656 133.585938 193.914062 133.582031 195.515625 134.003906 "/><path style=" stroke:none;fill-rule:evenodd;fill:#90318e;fill-opacity:1;" d="M 122.066406 181.546875 C 122.1875 181.328125 122.316406 181.109375 122.4375 180.886719 C 135.890625 156.664062 141.304688 151.289062 147.449219 125.8125 L 147.378906 126.085938 C 148.40625 115.769531 146.671875 111.859375 144.582031 102.53125 C 143.667969 110.539062 143.910156 104.894531 144.484375 114.316406 C 145.863281 137.003906 129.65625 157.796875 116.390625 180 L 116.105469 180.476562 C 118.351562 180.316406 120.476562 180.695312 122.066406 181.546875 "/><g clip-rule="nonzero" clip-path="url(#2b8b31f0b4)"><path style=" stroke:none;fill-rule:evenodd;fill:#9f2e9d;fill-opacity:1;" d="M 370.5 71.402344 C 315.003906 116.160156 286.621094 184.125 252.144531 222.59375 C 33.402344 466.667969 -138.609375 -27.886719 370.5 71.402344 "/></g><g clip-rule="nonzero" clip-path="url(#c5a849a6ca)"><path style=" stroke:none;fill-rule:evenodd;fill:#90318e;fill-opacity:1;" d="M 23.335938 298.605469 C 67.460938 237.367188 103.128906 172.089844 184.863281 132.863281 C 217.980469 116.96875 224.648438 111.007812 261.710938 102.292969 L 261.308594 102.394531 C 276.71875 100.320312 283.148438 101.667969 297.921875 102.820312 C 285.992188 104.539062 294.511719 103.730469 280.023438 104.105469 C 245.121094 105.007812 217.988281 123.3125 187.890625 138.820312 C 103.222656 182.4375 74.929688 249.910156 25.644531 316.765625 L 23.335938 298.605469 "/></g><path style=" stroke:none;fill-rule:evenodd;fill:#90318e;fill-opacity:1;" d="M 159.988281 147.1875 C 165.820312 146.40625 171.808594 145.828125 177.984375 145.476562 C 208.96875 143.734375 216.09375 141.230469 247.851562 146.363281 L 247.503906 146.3125 C 260.207031 149.660156 264.796875 152.785156 275.960938 158.445312 C 266.09375 155.945312 273.007812 158.054688 261.566406 153.679688 C 234.019531 143.136719 206.929688 148.695312 178.429688 151.109375 C 172.167969 151.640625 166.128906 152.394531 160.285156 153.351562 C 160.976562 151.335938 160.863281 149.128906 159.988281 147.1875 "/><path style=" stroke:none;fill-rule:evenodd;fill:#90318e;fill-opacity:1;" d="M 103.59375 191.679688 C 103.933594 191.660156 104.261719 191.632812 104.597656 191.617188 C 141.273438 189.550781 149.714844 186.585938 187.296875 192.664062 L 186.886719 192.601562 C 201.925781 196.566406 207.355469 200.261719 220.574219 206.960938 C 208.890625 203.996094 217.074219 206.503906 203.53125 201.320312 C 170.921875 188.84375 138.863281 195.421875 105.125 198.277344 L 104.402344 198.34375 C 104.917969 196.105469 104.632812 193.734375 103.59375 191.679688 "/><path style=" stroke:none;fill-rule:evenodd;fill:#90318e;fill-opacity:1;" d="M 195.515625 134.003906 C 197.75 130.769531 199.832031 127.457031 201.738281 124.046875 C 211.316406 106.925781 215.507812 102.925781 218.78125 85.59375 L 218.742188 85.785156 C 218.824219 78.886719 217.046875 76.453125 214.558594 70.46875 C 214.394531 75.828125 214.164062 72.085938 215.378906 78.257812 C 218.289062 93.117188 206.105469 108.199219 196.53125 123.96875 C 194.429688 127.429688 192.167969 130.78125 189.769531 134.027344 C 191.847656 133.585938 193.914062 133.582031 195.515625 134.003906 "/><path style=" stroke:none;fill-rule:evenodd;fill:#90318e;fill-opacity:1;" d="M 122.066406 181.546875 C 122.1875 181.328125 122.316406 181.109375 122.4375 180.886719 C 135.890625 156.664062 141.304688 151.289062 147.449219 125.8125 L 147.378906 126.085938 C 148.40625 115.769531 146.671875 111.859375 144.582031 102.53125 C 143.667969 110.539062 143.910156 104.894531 144.484375 114.316406 C 145.863281 137.003906 129.65625 157.796875 116.390625 180 L 116.105469 180.476562 C 118.351562 180.316406 120.476562 180.695312 122.066406 181.546875 "/></g></svg>